<svg preserveAspectRatio="none" width="100%" height="100%" overflow="visible" style="display: block;" viewBox="0 0 64 64" fill="none" xmlns="http://www.w3.org/2000/svg">
<g id="icons8_telegram_app_2 1">
<path id="Vector" d="M7.77333 31.488C24.5307 24.116 46.216 15.128 49.2093 13.884C57.0613 10.628 59.4707 11.252 58.2693 18.4627C57.4067 23.6453 54.9173 40.804 52.9333 51.484C51.756 57.8173 49.1147 58.568 44.9613 55.828C42.964 54.5093 32.8827 47.8427 30.6947 46.2773C28.6973 44.8507 25.9427 43.1347 29.3973 39.7547C30.6267 38.5507 38.6853 30.856 44.964 24.8667C45.7867 24.08 44.7533 22.788 43.804 23.4187C35.3413 29.0307 23.608 36.82 22.1147 37.8347C19.8587 39.3667 17.692 40.0693 13.8027 38.952C10.864 38.108 7.99333 37.1013 6.876 36.7173C2.57333 35.24 3.59466 33.3267 7.77333 31.488Z" fill="var(--fill-0, white)"></path>
</g>
</svg>